<svg width="635" height="732" viewBox="0 0 635 732" fill="none" xmlns="http://www.w3.org/2000/svg">
<path d="M629.72 175.682C629.57 175.592 629.41 175.532 629.25 175.452L322.43 1.3425C319.28 -0.4475 315.42 -0.4475 312.27 1.3425L5.2 175.622C5.2 175.622 5.17001 175.642 5.15001 175.652C5.13001 175.652 5.12001 175.663 5.10001 175.673C4.92001 175.773 4.76 175.902 4.59 176.012C4.39 176.142 4.19001 176.262 4.01001 176.402C3.84001 176.532 3.68 176.683 3.52 176.833C3.34 176.983 3.16 177.132 3 177.292C2.85 177.442 2.71001 177.612 2.57001 177.782C2.42001 177.952 2.26001 178.123 2.12001 178.303C1.99001 178.483 1.87 178.672 1.75 178.852C1.63 179.042 1.49 179.212 1.38 179.412C1.26 179.612 1.17001 179.832 1.07001 180.042C0.980007 180.232 0.870009 180.413 0.790009 180.613C0.690009 180.853 0.620009 181.093 0.540009 181.333C0.480009 181.513 0.410001 181.692 0.360001 181.872C0.280001 182.162 0.230008 182.462 0.180008 182.752C0.150008 182.902 0.109996 183.042 0.0899963 183.192C0.0299963 183.642 0 184.102 0 184.562V541.753C0 545.413 1.94 548.802 5.11 550.642L312.18 729.792C313.78 730.722 315.57 731.193 317.37 731.193C319.17 731.193 320.95 730.722 322.56 729.792L629.75 550.612C632.91 548.762 634.86 545.382 634.86 541.722V184.562C634.86 180.902 632.91 177.513 629.75 175.673L629.72 175.682ZM542.45 480.892V242.982L614.25 202.243V523.633L542.45 480.892ZM20.57 202.252L92.34 242.993V480.923L20.57 523.662V202.252ZM317.35 126.962L511.25 236.993L317.35 347.022L123.48 236.993L317.35 126.962ZM112.92 254.673L307.06 364.863V594.112L112.92 480.853V254.673ZM327.64 364.863L521.86 254.673V480.832L327.64 594.122V364.873V364.863ZM532.11 225.162L327.64 109.143V27.9725L603.63 184.583L532.11 225.173V225.162ZM307.06 27.9625V109.132L102.64 225.152L31.13 184.562L307.06 27.9525V27.9625ZM30.55 541.672L102.69 498.702L307.06 617.932V702.982L30.54 541.662L30.55 541.672ZM327.64 617.943L532.1 498.683L604.27 541.642L327.64 702.992V617.943Z" fill="white"/>
</svg>
